<svg xmlns="http://www.w3.org/2000/svg" width="2.5em" viewBox="0 0 304.41 349.95" fill="none" stroke="currentcolor" stroke-linecap="round" stroke-linejoin="round" stroke-width="16">
	<path d="m59.38 100.25 38.46 4.18c7.55-4.36 12.91-7.46 20.46-11.81l15.61-35.39h36.6l15.61 35.39c7.55 4.36 12.91 7.46 20.46 11.81l38.46-4.18c4.35 7.53 6.75 11.69 9.15 15.85l45.23-26.11L152.2 5 5 89.99l45.23 26.11c2.4-4.16 4.8-8.32 9.15-15.85ZM133.9 292.73l-15.61-35.39c-7.55-4.36-12.91-7.46-20.46-11.81l-38.46 4.18c-8.69-15.06-9.61-16.64-18.3-31.7l22.85-31.21v-23.63l-22.85-31.21c4.35-7.53 6.75-11.69 9.15-15.85L5 89.99v169.98l147.2 84.99v-52.23h-18.3Z" />
	<path d="M254.18 116.1c2.4 4.16 4.8 8.32 9.15 15.85l-22.85 31.21v23.63L263.33 218c-8.69 15.06-9.61 16.64-18.3 31.7l-38.46-4.18c-7.55 4.36-12.91 7.46-20.46 11.81l-15.61 35.39h-18.3v52.23l147.2-84.99V89.99l-45.23 26.11Z" />
	<path d="M206.57 104.43c-7.55-4.36-12.91-7.46-20.46-11.81L170.5 57.23h-36.6l-15.61 35.39c-7.55 4.36-12.91 7.46-20.46 11.81l-38.46-4.18c-4.35 7.53-6.75 11.69-9.15 15.85h0c-2.4 4.16-4.8 8.32-9.15 15.85l22.85 31.21v23.63L41.07 218c8.69 15.06 9.61 16.64 18.3 31.7l38.46-4.18c7.55 4.36 12.91 7.46 20.46 11.81l15.61 35.39h36.6l15.61-35.39c7.55-4.36 12.91-7.46 20.46-11.81l38.46 4.18c8.69-15.06 9.61-16.64 18.3-31.7l-22.85-31.21v-23.63l22.85-31.21c-4.35-7.53-6.75-11.69-9.15-15.85h0s0 0 0 0c-2.4-4.16-4.8-8.32-9.15-15.85l-38.46 4.18Z" />
	<path d="M152.2 206.91c-15.36 0-32.05-9.99-32.46-31.94.42-21.94 17.11-31.93 32.46-31.93s32.05 9.99 32.46 31.93c-.42 21.94-17.11 31.93-32.46 31.93Z" />
</svg>
